/* XPM */
static char *e27e2d249a644e17a3ee20e202d0da8bKjL91fS7zSgODfJG[] = {
/* columns rows colors chars-per-pixel */
"64 64 190 2 ",
"   c #000000",
".  c #011000",
"X  c #241E17",
"o  c #241F19",
"O  c #281F1A",
"+  c #222117",
"@  c #25201A",
"#  c #28231C",
"$  c #252A1D",
"%  c #282B1F",
"&  c #28321D",
"*  c #24391E",
"=  c #262626",
"-  c #282523",
";  c #272B20",
":  c #2A2C22",
">  c #222729",
",  c #29272B",
"<  c #252A2C",
"1  c #2C2C2C",
"2  c #312E2E",
"3  c #273223",
"4  c #2B3324",
"5  c #263D20",
"6  c #2C3A25",
"7  c #2E3D29",
"8  c #33312D",
"9  c #303F29",
"0  c #2A2F31",
"q  c #312E33",
"w  c #2D3234",
"e  c #343434",
"r  c #393637",
"t  c #353935",
"y  c #3A3837",
"u  c #343638",
"i  c #3A3639",
"p  c #33383A",
"a  c #3C3B3B",
"s  c #413D3D",
"d  c #2E442A",
"f  c #2D492C",
"g  c #31452B",
"h  c #324C2E",
"j  c #2F522C",
"k  c #32512F",
"l  c #3C403E",
"z  c #2B5233",
"x  c #345432",
"c  c #345B34",
"v  c #3A5D37",
"b  c #365E39",
"n  c #3A5E38",
"m  c #356135",
"M  c #356139",
"N  c #3B623B",
"B  c #316C38",
"V  c #3C6B3C",
"C  c #3D713F",
"Z  c #40643D",
"A  c #3F3D40",
"S  c #413F41",
"D  c #3F4241",
"F  c #3F4847",
"G  c #3E6940",
"H  c #3C6441",
"J  c #414342",
"K  c #444A46",
"L  c #454D49",
"P  c #445145",
"I  c #46534A",
"U  c #48554C",
"Y  c #47594D",
"T  c #495D4E",
"R  c #47614D",
"E  c #49624E",
"W  c #48684E",
"Q  c #427342",
"!  c #437C47",
"~  c #4A6651",
"^  c #4B6B52",
"/  c #4D7454",
"(  c #4D7855",
")  c #517556",
"_  c #507956",
"`  c #527659",
"'  c #507959",
"]  c #3E8148",
"[  c #3F944D",
"{  c #47844F",
"}  c #498B4D",
"|  c #44884D",
" . c #4B934F",
".. c #478855",
"X. c #4D8E53",
"o. c #528F5E",
"O. c #55865A",
"+. c #499552",
"@. c #4F9758",
"#. c #509A56",
"$. c #51915F",
"%. c #539D5C",
"&. c #49AD57",
"*. c #4CA859",
"=. c #54A25D",
"-. c #50AF5D",
";. c #57A760",
":. c #58AE64",
">. c #58B164",
",. c #5BB16C",
"<. c #5CBD6D",
"1. c #55B366",
"2. c #67BD76",
"3. c #4BD85D",
"4. c #56C666",
"5. c #59C167",
"6. c #5EC66D",
"7. c #5ECA6C",
"8. c #55C76B",
"9. c #4ED763",
"0. c #4BDA66",
"q. c #4DDD69",
"w. c #50D964",
"e. c #52DD6D",
"r. c #5DC671",
"t. c #5DDB70",
"y. c #61C56D",
"u. c #60CE73",
"i. c #69CA77",
"p. c #64C275",
"a. c #74C17D",
"s. c #65D675",
"d. c #63DB74",
"f. c #67D67A",
"g. c #65DD7A",
"h. c #69DE7D",
"j. c #4CE067",
"k. c #4FE16E",
"l. c #4DEE6C",
"z. c #51ED66",
"x. c #56E36B",
"c. c #52E76B",
"v. c #51E66B",
"b. c #53E56C",
"n. c #59E56C",
"m. c #51E96C",
"M. c #50EC6D",
"N. c #52E96C",
"B. c #5AE865",
"V. c #4EF46D",
"C. c #4DFA6C",
"Z. c #51F66E",
"A. c #52F86D",
"S. c #57E271",
"D. c #56E571",
"F. c #5AE473",
"G. c #55EC72",
"H. c #5AEB73",
"J. c #4FF670",
"K. c #54F671",
"L. c #5BF776",
"P. c #54F873",
"I. c #59F875",
"U. c #5EF779",
"Y. c #5EF879",
"T. c #67E67C",
"R. c #63EB7E",
"E. c #62F77C",
"W. c #64F87D",
"Q. c #66E581",
"!. c #6BE481",
"~. c #6BEE82",
"^. c #68EF88",
"/. c #73E487",
"(. c #68F781",
"). c #67F881",
"_. c #6FF986",
"`. c #6BF985",
"'. c #6FFA8A",
"]. c #6EFB89",
"[. c #66F581",
"{. c #71F485",
"}. c #71FB87",
"|. c #71F78A",
" X c #70FB88",
".X c #71FA89",
"XX c #70FA8A",
"oX c #72FB8A",
"OX c #71FA8C",
"+X c #70FB88",
/* pixels */
"x.> > > > > > > > 3.< < < 0 0 0 w 0 x.w w e u u w u e l.p p p p p p p p B.u e u u u w w w v.0 0 0 0 1 < > > 3.> > > > > > > > N.",
"N.= = = = = = = = 0.1 1 1 2 0 2 q e x.e e e u u p y p l.y u y p y r p y M.y t p r e e e e D.e 1 1 1 1 1 1 1 0.= = = = > = = = N.",
"N.= = = = = = = 1 0.1 1 1 w 8 w e e S.e u p y y a y y l.y a a a a a p y M.y y p y p e y u D.e e e w @ 1 o 1 @ o = o = @ = > = N.",
"c.= = = = = , : 1 0.1 2 e 8 e e y u S.u y y a y a y a l.a a a a A a a a M.a a y y y r y r b.e - X @ @ @ o @ @ o o o = o = @ @ N.",
"N.= - - - = 1 1 1 9.2 e 8 e e e y r x.r y a a a a a A M.a s s s s s s s M.a a a a a y y t + - @ X @ @ - + o |.o G @ 4 ! - o o @ ",
"c.= = = , 1 1 1 2 0.q e e e y y p y S.a a a s a a S A M.s D s S a D l l M.J a s J a a - e O : @ ; ].+.O O o o o $ @ @ O o O - 6 ",
"c.= = = = 1 2 0 8 0.e e e u y y a a F.a s a s S J S J M.J K K K K K J J M.J D s s a a @ @ ] o X.o O o :.+ o # o G $ ].o o @ o o ",
"c.= , , 2 1 2 2 q 0.e e y a y y a a D.a s J J J K K P K.T T T T T T Y Y G.L K J J @ @ @ @ @ o o o ].6 O o o @ @ @ # @ o @ @ o s.",
"N.= 1 , 1 1 1 e e 0.u r y p a a a D S.s S K L I T E ^ G.) ( ) _ ` ) ) / L.~ T U J - # @ @ @ O |.@ @ - # o 5 o @ 5 o @ @ o @ @ @ ",
"N.: , 1 2 q e e e 0.y u y a a A A A S.K L U T ^ ) ( ` |. X X X}. X X}.|.G.` ( x h OX4 ; @ O @ @ 6 N @ @ @ @ o @ o o @ x @ o @ o ",
"v., 1 1 w 8 e e e 0.y a a a D A A J S.I ~ ^ ) )  X X X X X X X]. X X].}. X X].!.v x h 9 : % g.O @ @ o @ # o @ G @ @ o @ @ @ o o ",
"N.1 1 1 e e e e u 0.y a a l a J K P F.^ ) o.`. X X X X'. X|. X]. X X X]. X X X X].|.v x g 4 : @ @ @ @ @ o o @ @ u.@ @ f.@ %.@ @ ",
"x.1 8 w e e e p y 0.a a s a J K P ~ H.( _.'.].OX X X X X X X X X X X X X X XOX]. X X].{.c c 9 : @ @ @ @ # @ @ Q @ @ @ @ @ @ @ o ",
"N.1 1 e e e r y y 0.a S J J K I ~ ( _.'.]. X X X X X X X X X X X X X X X X X X X X X X`.|.v <.d 3 @ @ @ @ f @ @ @ @ @ O O @ V @ ",
"N.0 e e e e p y a 0.J a S K U ~ ( ].`. X X X X X X X XOX}. X].}. X X X X X X X X X XOX|.|.`.N x 9 : @ @ @ @ o @ o @ @ @ o o o o ",
"x.1 8 e u r y a a 0.a S J U ^ ) `.'. X|. X X X X6.      ].}.}.}. X X X X X X X X X X X X|.}.`.}.} d % @ @ o @ @ @ o : @ o # o %.",
"N.e e e e p y a a q.s J P ~ ) `.].].}.}.].}.].}.6.       X X}.].].}.}.}. X X}.}.].}.}.}. X]. X`.n k 9 % @ @ @ @ @ @ @ @ @ @ @ @ ",
"N.e e e y y a a a q.J L ~ ) `.`.].].}.|.].}.].].6.       X`.}.}.}.}.].}. X].}.}.}.}.].]. X X X|.`.v h 4 # @ @ @ @ @ @ @ @ @ @ @ ",
"c.e e t t a a a l q.F Y ^ $.`.].'.|.`.`.`.}.]._.6.      |.].`._.].].|._.].].`.|.]._._._.`.|.`.]. X).` T L l 0.a @ @ @ @ o O @ @ ",
"N.8 e t t a a l S q.P ~ ' (.].].`.`.`.|.`.`.}.`.6.      `.|.`.|._._.`.`.}.`.`.`._._._.].|.`.|. X].`.,.^ Y K w.a a a t r @ O @ @ ",
"N.e e p p a a D J q.T ) ).`.].`.`.].`.`.`.`.`.`.6.      `.`.`.`.).`.`.`._.).].].).].`.`.`.`.`.`.].`.).( ~ K 0.l a a a p e e @ @ ",
"N.e y y y a a A J q.W ' ).`.`.`.`.`.`.`.`.`.`.`.6.      `.`.`.`.].).].`.].).).].`.`.`.`.).`.`.`.`.`.`.)./ Y 0.J A a y r e e e @ ",
"n.y u y a a D a J e./ W.`.`.`.).`.`.).`.`.).`.`.6.      `.).`.`.).`.).`.)._._.).).].).`.`.`.`.`.`.).`.).( ~ q.a A a a r r r e v.",
"b.e y y y a S J L b.( W.).`.).`.`.).`.`.).`.).`.6.      `.`.`.`._.).].).)._.)._.).).`.).`.`.W.`.`.`.`.)...^ q.J D a a i u e e l.",
"b.r y a a D a J I x._ W.`.(.(.(.).).).`.(.(.`.(.y.      ).`.).(.W.`.).`.).`.).(.).).`.).(.`.`.).).).`.`.E./ k.K A a A y y u e N.",
"N.y y u a A D J Y D.W.).).).(.(.).).(.(.(.W.W.(.y.      (.(.W.(.`.W.(.(.(.(.W.(.(.(.(.(.W.(.(.).).).).).[./ b.K J l a y p y e N.",
"b.u y a a A A K ~ D.W.).).).).).).).).).(.`.{.W.y.      `.).).).W.`.(.W.(.(.`.W.).).(.(.(.).).).).).).).E.( x.L S a a a a y e N.",
"N.u a a a A S L ~ D.Y.).W.).W.W.W.).W.W.W.W.W.W.y.      W.W.W.W.W.{.z z z k x W.).W.W.W.W.).W.).).).).).W.r.v.P J A a a i u e v.",
"N.r a a a D S L ~ S.Y.).[.W.W.W.W.W.W.W.W.W.W.W.7.      W.W.W.W.W..         ~.[.W.W.W.W.W.W.W.W.W.W.W.).W.W.N.I J D a a p e e @ ",
"N.r y a a A J P ^ D.U.).W.W.W.E.W.W.E.E.W.W.W.W.6.      W.W.W.E.y.        8.W.W.W.W.W.W.W.W.W.W.W.W.W.W.W.Y.b.T J D a y 2 @ @ @ ",
"N.u y a a A D L W D.E.W.E.E.E.E.W.W.E.E.W.E.E.E.6.      E.E.W.6.        y.E.E.W.W.E.W.E.W.W.E.E.E.E.W.W.E.E.b.Y 8 a @ @ X @ @ @ ",
"b.y y a a D J P ^ x.U.[.E.E.E.E.W.E.E.E.E.E.E.E.6.      W.W.6.        r.W.W.W.W.W.W.W.E.E.E.Y.W.W.E.W.W.W.E.m P : 8 @ # O @ @ @ ",
"N.p p a a s J L ^ D.L.).W.W.W.W.W.W.E.E.E.E.E.E.6.      E.u.        6.E.E.E.E.Y.E.E.Y.E.E.E.E.Y.E.E.E.E.W.U.x 7 ; @ '.o o N : * ",
"N.r y a a J a L W D.U.W.U.Y.Y.E.Y.Y.Y.E.Y.Y.Y.E.6.      6.        6.Y.E.Y.Y.Y.Y.E.Y.Y.Y.Y.Y.E.Y.Y.E.E.E.U.U.x 6 # O @ O o @ @ [ ",
"b.r y a a a S K E D.U.Y.L.U.U.U.U.U.U.U.U.Y.U.U.6.              6.Y.U.U.U.U.U.U.Y.U.U.U.U.U.U.U.Y.E.Y.Y.Y.E.x 4 | @ @ @ @ @ @ @ ",
"b.y y a a D S K T D.Y.Y.Y.Y.U.U.Y.Y.U.Y.Y.Y.Y.U.6.            y.E.Y.Y.Y.Y.Y.Y.E.Y.Y.E.Y.Y.Y.E.Y.I.I.E.I.Y.5.h 4 @ o @ @ %.@ @ @ ",
"N.r y a a S A K Y D.I.Y.I.U.L.L.L.L.U.U.U.U.U.U.6.              L.Y.Y.Y.U.U.U.U.Y.U.U.U.U.U.U.U.E.L.Y.I.Y.v  .: @ @ ].@ @ O |.@ ",
"N.r y r y s A J I m.*.Y.Y.U.U.L.U.L.U.L.L.U.U.L.6.              6.U.L.Y.U.U.L.L.Y.Y.L.L.U.I.L.Y.Y.L.I.Y.Y.(.d $ + @ m @ oXO #.@ ",
"D.e u a a a D D K k.( I.Y.L.L.L.L.L.L.L.L.L.L.U.6.      6.        6.Y.I.Y.Y.Y.I.Y.I.I.Y.Y.I.I.Y.I.W.I.W.F.x 4 # @ @ @ @ + @ <.X ",
"N.e u r a a a l F k.^ L.Y.I.I.Y.L.L.L.L.I.Y.I.I.6.      I.6.        I.I.I.I.I.Y.I.Y.I.I.Y.I.Y.I.I.I.I.I.v Q.: >.@ @ @ @ @ @ # @ ",
"B.u y y y a a l J e.^ ( L.U.L.I.L.L.L.L.L.L.L.L.6.      L.L.        r.L.L.I.L.L.P.L.L.I.L.L.K.L.I.I.Y.I.x V : OX@ @ @ @ i.@ @ @ ",
"N.e e u y a a a a e.R ( L.L.I.I.L.L.L.L.L.P.I.L.6.      L.L.y.        4.L.L.L.L.L.L.K.L.L.L.I.L.I.I.I.M h 6 # & @ @ ].@ @ 4 @ @ ",
"b.e e y y y a J l q.U W ( P.I.I.P.L.L.L.K.L.P.I.6.      P.P.L.2.      a.I.I.I.I.L.L.I.I.L.L.I.I.I.Y.I.x 7 |.@ @ {.@ @ X @ & @ @ ",
"N.e e e p y a a s w.K Y ^ A.L.P.P.P.K.K.L.L.K.K.6.      K.L.A.y.        y.K.K.K.A.A.L.A.A.L.K.P.P.K.c ~.4 @ |.o % X @ @ O @ @ @ ",
"c.e e e y r a a a e.J I W / P.P.P.K.K.K.A.L.K.K.6.      P.K.K.K.6.        K.K.P.K.K.K.P.P.P.P.I.P.].x 6 1.@ N o @ O @ O O O X l.",
"z.q q e r a i a s 9.D J L h c A.P.K.K.K.A.K.K.A.6.      K.K.K.K.K.        6.K.K.K.K.K.K.K.P.P.K.&.c 7 : @ O o @ o @ @ @ e 2 2 b.",
"v.e q e e r y y a 0.a s : f +.c K.K.P.K.Z.K.A.A.6.      A.K.Z.Z.A.6.        6.A.A.A.K.A.K.K.K.G.x d * @ @ @ O @ + e e e e e 1 v.",
"c.1 e e e e u a a 0.l D @ : d k M K.P.K.K.K.K.K.6.      J.K.K.Z.K.K.7.        A.K.K.K.K.P.K.F.c ].4 # O @ @ @ @ u e e e 1 1 0 N.",
"c.1 1 e e e e y a 0.a @ @ ].: 7 T.m J.A.K.K.K.V.6.      Z.Z.Z.Z.Z.Z.H.        y.K.J.K.J.K.c c d 4 @.@ @ @ o o @ e e e 8 2 1 1 l.",
"x.1 1 2 e e e e y 0.a O f.@ @ : 6 h c V.A.A.J.K.A.A.J.K.Z.A.Z.Z.Z.V.K.Z.K.V.K.K.A.K.J.V.b x d M # C @ @ o @ @ o e e w 2 2 1 1 N.",
"c.1 1 w 1 e e e p 0.@ % g.@  X@ : 4 ].c v A.Z.A.A.A.K.V.V.A.A.V.V.A.V.A.K.J.A.A.V.A.( / W 7 : # @ @ @ @ O @ @ @ @ e 2 0 1 1 = N.",
"N., 1 1 1 e e e e 0.@ oX@ @ m @ : $ 3 7.j c b A.V.A.K.K.A.A.A.A.A.A.J.A.K.K.A.A.c / ^ T P % @ @ + o @ @ @ @ X @ @ e 2 1 1 1 = N.",
"c.- , 1 1 w 8 e e 0.| @ @ @ C @ X @ @ % 3 d f c v m C.A.A.A.C.A.V.A.A.A.V.E.c x j R I K D @ @ @ @ @ @ O @ @ @ s.@ @ @ 1 1 = = l.",
"@ # X O 1 @ q 8 = 3 =.@ @ @ k @ @ @ @ @ # : 4 7 g z x c c c c v c *.c c x x f ].4 3 D D A O @ 4 O @ o @ o @ o @ @ O @ , @ = > b.",
"} @ @ o + @ 1 @ @ @ @ @ @ @ @ + @ @ @ @ @ @ J J K I 6 6 d d f f f f d ^.7 3 : $ # @ S S a o @ @ @ o @ @ @ @ @ X |.@ @ @ @ > O @ ",
"@ @ + @ $ @ @ @ @ Q o @ @  X@ % @ @ @ @ @ a a D D l J V.$ % % f.% : % # $ # @ @ @ e a a a B @ @ @ @ o @ @ %.@ o @ @ @ @ @ @ %.O ",
"(.@ @ O @ @ @ + @ @ @ + O @ 7 O @ @ @ @ + a a A A a A J.a @ o @ @ @ o @ o @ @ @ @ @ a a y D.@ o X.k @ @ @ @ o o @  X@ @ X X @ @ ",
"O X @ + 3 @ @ o @ @ @ @ @ @ b O @ o o @ y y a a a a a l.a o X @ @ @ o o @ @ N g.@ o p y u b.@ @ o @ @ # @ @ ].@ @ @ @ @ O @ O h.",
"! @ @ @ @ f @ @ @ X @ @ @ @ @ @ @ o @ @ y y y y p a a l.a a @ @ @ O @ o O o @ o O O @ t r D.O o o @ g @ @ @ @ o @ @ @ $ @ @ @ @ ",
"@ @ @ @ @ @ d @ @ @ O @ @ @ @ + @ @ O X p u y p p y y l.y a @ >.@ @ X X o !.o c O @ @ e e D.e o o @ @ O 5 @ @ 5 @ @ 4 @ @ oXo @ ",
"@ @ Q. X; @ @ @ @ @ @ o @ @ @ @ O o @ e e e e e y r p M.y y p @ f 6 o @ o @ o @ @ V @ e e D.e o @ @ o 6.@ @ @ @ @ o o O @ @ @ oX",
"@ @ @ #.o @ @ + @ O N o @ @ @ X @ @ @ e e e e e e t e V.e e u O @ @ R.@ @ @ o @ X o @ w e e.1 0 @ @ o o @ : o @ @ @ @ o @ @ @ @ ",
"- @ ; @ o @ @ @ @ o o + @ o @ @ @ @ D.8 2 w 8 e e e e l.e e e @ @ @ @ O @ o @ @ O $ @ 8 1 x.1 1 = o o O o o @ @ @ o o OX@ O @ @ ",
"o @ p.@ H o @ o @ @ - @ @ @ @ O @ - d.: 1 1 q q 1 8 8 S.2 e 0 @ @ $ 6 /.,.O.o ;.o o 1 : 1 d.1 , , @ @ @ - o @ - @ @ @ @ o 1.@ 4 "
};
