/* XPM */
static char *_59eb9c907174325a2ebfe08869916c7ZsDjNlv96VtALQ1T[] = {
/* columns rows colors chars-per-pixel */
"16 16 32 1 ",
"  c None",
". c black",
"X c #000400",
"o c #000500",
"O c #001302",
"+ c #001802",
"@ c #002303",
"# c #002604",
"$ c #002904",
"% c #002E05",
"& c #002F05",
"* c #003005",
"= c #003505",
"- c #003605",
"; c #003B06",
": c #003E06",
"> c #004107",
", c #004207",
"< c #004307",
"1 c #004407",
"2 c #004908",
"3 c #005509",
"4 c #005709",
"5 c #005B0A",
"6 c #00630A",
"7 c #006F0C",
"8 c #007F0E",
"9 c #289333",
"0 c #3C9D46",
"q c #60AF68",
"w c #64B16C",
"e c #68B370",
/* pixels */
"     e9889e     ",
"   e88888888e   ",
"  088.>8888880  ",
" e888+;8888888e ",
" 8888+=88888888 ",
"e8888+&88*18888e",
"98888+$8>o688889",
"88888+#2.5888888",
"88888+O.58888888",
"98888+@.=8888889",
"w8888+:;.388888w",
" 8888+>8&o78888 ",
" q888+>88@.888q ",
"  088897888880  ",
"   q88888888q   ",
"     w9889w     "
};
