/* XPM */
static char *_7875478c99a4796d34794472ef2a873x8n0N4EDEHtGyBuX[] = {
/* columns rows colors chars-per-pixel */
"32 32 158 2 ",
"   c None",
".  c #000500",
"X  c #000700",
"o  c #000F01",
"O  c #001101",
"+  c #001302",
"@  c #001402",
"#  c #001502",
"$  c #001602",
"%  c #001702",
"&  c #001802",
"*  c #001902",
"=  c #001A02",
"-  c #001B02",
";  c #001C02",
":  c #001D02",
">  c #001D03",
",  c #001E02",
"<  c #001F02",
"1  c #001E03",
"2  c #001F03",
"3  c #002002",
"4  c #002003",
"5  c #002103",
"6  c #002203",
"7  c #002303",
"8  c #002403",
"9  c #002503",
"0  c #002604",
"q  c #002804",
"w  c #002904",
"e  c #002A04",
"r  c #002B04",
"t  c #002C04",
"y  c #002D04",
"u  c #002E04",
"i  c #002F04",
"p  c #002E05",
"a  c #003104",
"s  c #003105",
"d  c #003205",
"f  c #003305",
"g  c #003405",
"h  c #003505",
"j  c #003605",
"k  c #003705",
"l  c #003706",
"z  c #003905",
"x  c #003806",
"c  c #003A06",
"v  c #003B06",
"b  c #003F06",
"n  c #004106",
"m  c #004107",
"M  c #004206",
"N  c #004207",
"B  c #004407",
"V  c #004507",
"C  c #004607",
"Z  c #004707",
"A  c #004807",
"S  c #004907",
"D  c #004A07",
"F  c #004B07",
"G  c #004A08",
"H  c #004B08",
"J  c #004C08",
"K  c #004D08",
"L  c #004E08",
"P  c #004F08",
"I  c #005008",
"U  c #005108",
"Y  c #005208",
"T  c #005508",
"R  c #005609",
"E  c #005809",
"W  c #005A09",
"Q  c #005B09",
"!  c #005C09",
"~  c #005C0A",
"^  c #005D0A",
"/  c #005E0A",
"(  c #005F0A",
")  c #00600A",
"_  c #00610A",
"`  c #00620A",
"'  c #00630A",
"]  c #00640A",
"[  c #00650B",
"{  c #00660B",
"}  c #00670B",
"|  c #00680B",
" . c #00690B",
".. c #006A0B",
"X. c #006B0B",
"o. c #006C0B",
"O. c #006D0B",
"+. c #006F0B",
"@. c #006E0C",
"#. c #006F0C",
"$. c #00700C",
"%. c #00720C",
"&. c #00730C",
"*. c #00740C",
"=. c #00760C",
"-. c #00770D",
";. c #00780D",
":. c #00790D",
">. c #007A0D",
",. c #007B0D",
"<. c #007C0D",
"1. c #007D0D",
"2. c #007E0D",
"3. c #007F0E",
"4. c #028010",
"5. c #038011",
"6. c #068213",
"7. c #068214",
"8. c #078214",
"9. c #078215",
"0. c #088315",
"q. c #0A8417",
"w. c #0B8418",
"e. c #0D851A",
"r. c #0E861B",
"t. c #12881E",
"y. c #138820",
"u. c #148920",
"i. c #148921",
"p. c #158921",
"a. c #168A22",
"s. c #188B24",
"d. c #1A8C26",
"f. c #1E8E29",
"g. c #1F8E2B",
"h. c #208F2C",
"j. c #218F2D",
"k. c #299334",
"l. c #2A9435",
"z. c #30973B",
"x. c #31973C",
"c. c #369A40",
"v. c #379A41",
"b. c #389B42",
"n. c #3A9C45",
"m. c #3C9D46",
"M. c #3F9E49",
"N. c #42A04C",
"B. c #45A14F",
"V. c #47A250",
"C. c #48A351",
"Z. c #4CA556",
"A. c #4EA657",
"S. c #55A95D",
"D. c #58AB60",
"F. c #60AF68",
"G. c #64B16C",
"H. c #68B370",
/* pixels */
"                    H.D.b.f.w.3.3.0.h.b.D.H.                    ",
"                    C.N.l.i.0.3.3.8.i.l.N.C.                    ",
"            H.A.d.0.i.i.r.0.3.3.3.5.8.r.a.i.0.d.A.G.            ",
"            A.n.i.-.| [ | -.,.3.3.3.3.3.3.3.3.t.m.A.            ",
"        m.x.j.t.6.[ l w B ! &.4.3.3.3.3.3.3.3.8.t.j.x.m.        ",
"        x.j.w.3.3.' 7 @ a P +.4.3.3.3.3.3.3.3.3.3.w.j.x.        ",
"    H.Z.j.w.5.3.3.' w < a K o.5.3.3.3.3.3.3.3.3.3.3.w.j.A.H.    ",
"    A.n.y.3.3.3.4.[ a < a H o.3.3.3.3.3.3.3.3.3.3.3.3.y.n.A.    ",
"    d.y.6.3.3.3.3.[ a < p C o.3.3.3.3.3.3.3.3.3.3.3.3.0.y.d.    ",
"    0.3.3.3.3.3.3.[ a < p C o.3.3.,.&.+.+.&.,.3.3.3.3.3.3.0.    ",
"H.C.i.3.3.3.3.3.3.[ a < w C  .3.3.+.Y B K ~ &.3.3.3.3.3.3.i.C.H.",
"D.N.i.3.3.3.3.3.3.[ p < w N  .,.&.~ l p M R &.3.3.3.3.3.3.a.N.D.",
"b.l.r.3.3.3.3.3.3.[ a > 0 b  .&.! M > 0 H ' -.3.3.3.3.3.3.r.l.b.",
"h.i.8.3.3.3.3.3.3.[ a > 7 c ( _ M w < p R o.,.3.3.3.3.3.3.0.i.f.",
"q.6.4.3.3.3.3.3.3.[ a * 7 a H C 7 < l I  .,.3.3.3.3.3.3.3.3.0.w.",
"4.3.3.3.3.3.3.3.3.[ a * > 0 a p > w I | -.3.3.3.3.3.3.3.3.3.3.3.",
"3.3.3.3.3.3.3.3.3.[ a = @ @ + < l P [ -.>.3.3.3.3.3.3.3.3.3.3.3.",
"w.0.3.3.3.3.3.3.3.[ a @ @ + . + c ~ &.3.3.3.3.3.3.3.3.3.3.4.8.q.",
"f.i.9.3.3.3.3.3.3.[ a = < = X + p K +.3.3.3.3.3.3.3.3.3.4.8.i.h.",
"v.l.r.3.3.3.3.3.3.[ a = 9 7 @ @ 7 c ' -.>.3.3.3.3.3.3.3.3.r.l.x.",
"S.M.y.3.3.3.3.3.3.[ a > y a y 9 + 7 H [ ,.3.3.3.3.3.3.3.3.a.M.S.",
"F.C.i.3.3.3.3.3.3.[ a 7 l M D c < @ a P +.,.3.3.3.3.3.3.3.t.V.G.",
"    0.3.3.3.3.3.3.[ a 7 l D ' ~ l 7 = y ~ -.3.3.3.3.3.3.3.0.    ",
"    d.y.9.3.3.3.3.[ a 7 l Y +.+.P a = < b ! &.3.3.3.3.6.t.d.    ",
"    C.v.t.3.3.3.2.[ a 7 z Y +.=.+.R p = < a [ 3.3.3.3.t.x.C.    ",
"    F.V.f.w.5.3.4.| B z D ~ &.3.3.+.D l 0 c [ 3.3.3.w.h.C.F.    ",
"        z.j.w.3.3.>.| [ +.&.>.3.3.,.o.[ !  .-.3.3.w.j.z.        ",
"        n.x.g.t.6.4.4.3.3.3.3.3.3.3.3.3.3.3.3.6.t.h.z.m.        ",
"            C.v.t.3.3.3.3.3.3.3.3.3.3.3.3.3.3.t.b.C.            ",
"            G.V.d.w.y.i.w.0.3.3.3.3.0.w.a.i.0.d.C.F.            ",
"                    B.M.l.s.0.3.3.0.d.k.M.N.                    ",
"                    F.S.v.f.0.3.3.0.f.v.S.G.                    "
};
